<svg width="248" height="359" viewBox="0 0 248 359" fill="none" xmlns="http://www.w3.org/2000/svg">
<path fill-rule="evenodd" clip-rule="evenodd" d="M215.289 196.533C212.646 186.296 210.216 181.956 205.522 178.398C201.131 175.07 194.721 172.275 185.369 170.233C175.628 168.532 175.352 163.476 172.91 155.348C172.197 152.905 168.666 152.255 167.142 154.016C166.927 153.785 166.703 153.572 166.471 153.381C166.679 152.215 164.98 148.876 165.037 147.761C165.629 136.127 161.819 130.285 152.31 128.113C150.242 127.641 136.195 127.363 134.179 127.92C125.364 130.354 116.686 138.083 118.014 147.393C115.247 151.005 112.538 153.209 108.269 154.373C101.621 155.216 104.961 249.286 116.507 305.644C121.461 329.824 239.916 288.668 234.563 276.557C235.322 274.337 233.939 271.898 234.563 269.605C235.015 267.946 236.172 267.26 236.754 265.617C237.574 263.306 236.683 260.204 235.76 257.845C235.382 256.67 236.456 255.404 236.754 254.205C238.17 248.546 234.929 249.045 232.592 245.262C232.627 245.251 233.234 242.55 233.232 242.564C233.589 240.636 232.693 238.166 231.911 236.556C231.383 235.469 230.251 234.788 229.126 234.913C230.259 231.072 231.691 227.876 233.232 224.176C235.956 217.654 238.547 210.83 242.459 204.927C244.061 202.509 242.767 200.286 240.174 200.121C231.783 199.588 223.484 198.382 215.289 196.533Z" fill="#D08B5B"/>
<path fill-rule="evenodd" clip-rule="evenodd" d="M202.19 197.324L183.035 229.703C183.035 229.703 187.579 230.156 189.418 231.038C191.257 231.921 199.7 242.642 199.7 242.642L201.042 248.546L197.863 253.306L199.103 256.295C199.103 256.295 199.987 254.27 202.19 252.698C204.392 251.127 209.248 248.546 209.248 248.546C209.248 248.546 207.634 247.684 207.634 246.671C207.634 245.659 206.213 241.339 209.248 239.708C212.284 238.076 227.97 234.257 227.97 234.257L243.867 200.763L202.19 197.324Z" fill="#EC7495"/>
<path fill-rule="evenodd" clip-rule="evenodd" d="M116.741 154.593L177.563 165.255L205.522 178.398L210.086 181.91L183.035 229.703L141.266 237.315L130.624 264.924L132.796 296.045L200.746 287.953L230.057 284.474L236.947 312.258L235.702 323.688L233.892 329.484L161.229 349.079C161.229 349.079 124.228 345.496 117.669 345.496C111.11 345.496 63.0207 350.267 63.0207 350.267L51.8941 349.079C51.8941 349.079 27.2764 323.163 23.4582 313.939C19.6401 304.716 11.3835 248.647 11.3835 248.647L12.2927 240.033L33.5617 185.361C33.5617 185.361 36.402 182.784 39.9827 178.398C43.5635 174.012 116.741 154.593 116.741 154.593Z" fill="#2BBD31"/>
<path fill-rule="evenodd" clip-rule="evenodd" d="M226.823 233.567C221.326 233.846 215.823 235.152 210.851 237.517C208.817 238.486 206.974 239.885 206.434 242.187C206.161 243.362 206.228 244.577 206.373 245.764C206.483 246.663 206.51 247.811 207.292 248.42C207.425 248.523 207.568 248.601 207.716 248.659C205.882 249.486 204.136 250.48 202.583 251.503C201.165 252.439 199.707 253.88 199.052 255.507C198.997 255.322 198.943 255.15 198.888 254.986C197.772 251.691 196.053 248.992 193.346 247.178C193.038 246.059 189.739 241.242 186.674 241.424C183.318 241.621 180.618 241.866 177.583 243.407C176.477 243.383 175.373 243.398 174.282 243.447C174.094 243.453 174.103 243.707 174.282 243.728C175.167 243.841 176.053 243.965 176.938 244.11C179.042 244.446 181.14 244.873 183.192 245.403C185.654 246.04 188.201 246.678 190.502 247.79C194.965 249.949 197.727 255.595 197.16 260.507C197.066 261.313 196.754 263.748 195.635 263.496C194.689 263.284 194.313 261.313 193.983 260.583C193.097 258.644 191.503 257.378 189.589 256.521C187.343 255.513 184.939 254.831 182.61 254.038C181.291 253.587 179.973 253.135 178.651 252.687C177.299 252.224 176.013 251.585 174.573 251.909C173.703 252.106 173.603 253.141 174.091 253.735C174.834 254.641 175.937 254.907 177.008 255.28C178.42 255.77 179.83 256.261 181.24 256.752C183.419 257.509 185.703 258.148 187.828 259.075L187.761 259.226C187.588 259.177 187.385 259.35 187.419 259.562C187.737 261.522 188.18 263.787 187.688 265.75C187.3 267.306 185.933 269.03 184.156 268.572C184.435 268.318 184.539 267.879 184.351 267.473C183.647 265.971 174.431 260.041 173.609 262.243C173.582 262.321 173.666 262.379 173.733 262.367C174.434 262.221 175.607 263.415 176.167 263.793C176.977 264.339 177.799 264.871 178.599 265.432C179.475 266.044 180.33 266.686 181.164 267.349C181.819 267.87 182.313 268.412 183.065 268.676C182.671 268.863 182.358 269.211 182.225 269.657C181.886 270.817 181.231 271.801 180.094 272.313C178.902 272.846 177.559 272.51 176.304 272.64C174.594 272.812 173.103 273.624 171.857 274.784C169.24 277.225 167.927 281.526 164.268 282.68C162.082 283.368 159.657 282.934 157.443 282.622C154.973 282.274 152.565 281.998 150.076 282.362C147.693 282.71 145.441 283.534 143.264 284.539C141.223 285.481 138.968 286.548 137.158 287.953C136.785 286.805 136.409 285.669 136.124 284.497C135.451 281.726 135.087 278.903 134.999 276.056C134.917 273.346 135.069 270.623 135.302 267.924C135.418 266.576 135.599 265.235 135.715 263.887C135.745 263.548 135.806 263.184 135.851 262.821C139.083 260.916 142.478 259.456 145.901 257.954C145.911 257.951 145.92 257.945 145.929 257.942C146.035 257.893 146.138 257.848 146.244 257.803C146.241 257.796 146.238 257.791 146.232 257.784C146.623 257.545 146.896 257.227 147.06 256.87C151.992 253.602 156.116 249.141 159.19 243.937C160.478 241.757 161.718 239.494 163.404 237.584C165.199 235.545 167.33 234.333 169.968 233.704C173.051 232.965 176.228 232.522 179.388 232.271C181.113 232.135 183.041 231.923 184.921 231.932C186.23 231.941 187.512 232.053 188.689 232.377C190.432 232.855 191.451 234.179 192.545 235.518C193.591 236.802 194.631 238.089 195.608 239.428C196.532 240.697 197.405 242.008 198.163 243.383C198.618 244.207 199.04 245.055 199.394 245.93C199.519 246.239 199.682 246.59 199.758 246.911C199.834 247.236 199.694 247.578 200.058 247.578C198.557 247.599 197.56 251.337 199.052 251.249C201.149 251.128 202.203 248.616 201.792 246.388C201.059 242.412 197.1 237.61 196.317 236.593C194.586 234.346 192.8 231.414 190.029 230.369C189.99 230.354 189.947 230.339 189.908 230.327C190.714 229.563 191.351 228.649 191.96 227.719C192.588 226.762 193.336 225.665 193.543 224.53C193.673 223.806 192.773 223.394 192.345 224.027C191.724 224.951 191.424 226.12 190.96 227.135C190.487 228.164 189.911 229.136 189.456 230.175C188.362 229.839 187.179 229.685 185.976 229.633C187.494 227.58 190.089 223.618 190.402 223.109C191.839 220.753 193.206 218.324 194.513 215.892C195.926 213.257 197.136 210.513 198.488 207.848C199.255 206.337 200.028 204.813 200.88 203.347C201.174 202.845 201.489 202.342 201.847 201.885C201.917 201.794 202.005 201.718 202.086 201.633C202.18 201.582 202.277 201.524 202.332 201.494C202.823 201.212 202.996 200.558 203.341 200.143C203.893 199.474 204.542 199.395 205.373 199.386C207.143 199.368 208.92 199.437 210.688 199.486C213.286 199.559 215.881 199.662 218.476 199.798C219.262 199.84 220.044 199.883 220.829 199.931C224.604 200.155 228.375 200.449 232.138 200.81C235.466 201.127 238.795 201.646 242.127 201.894C237.616 212.6 232.614 223.113 226.95 233.259C226.893 233.361 226.85 233.464 226.823 233.567ZM201.792 261.149C201.065 261.483 200.358 261.897 199.7 262.37C199.81 261.634 199.837 260.858 199.807 260.08C200.349 260.662 201.043 260.995 201.792 261.149ZM232.853 242.732C232.801 242.738 232.753 242.765 232.729 242.817C231.722 244.891 232.143 247.208 233.787 248.835C234.648 249.683 236.524 250.64 236.464 252.033C236.412 253.16 235.184 254.104 234.66 255.034C234.172 255.9 233.99 256.851 234.381 257.791C234.881 258.993 236.279 259.471 236.758 260.653C237.364 262.152 236.379 263.96 235.688 265.265C235.045 266.473 234.214 267.682 233.662 268.96C229.967 270.871 221.581 274.342 220.571 274.536C219.34 274.775 218.106 275.002 216.869 275.214C214.495 275.626 212.116 276.008 209.73 276.344C208.371 276.535 207.01 276.722 205.649 276.871C204.46 276.998 203.12 277.171 202.162 276.278C200.231 274.472 201.313 271.447 202.535 269.623C202.559 269.587 202.559 269.554 202.55 269.523C203.702 269.254 204.851 268.939 205.997 268.718C208.202 268.294 210.421 267.937 212.643 267.619C217.209 266.967 221.805 266.537 226.395 266.104C227.532 265.995 227.544 264.208 226.395 264.314C219.801 264.917 213.174 265.489 206.667 266.758C205.036 267.073 203.417 267.431 201.808 267.833C201.047 268.021 200.231 268.315 199.434 268.324C199.385 268.324 199.336 268.324 199.288 268.321C197.727 268.273 197.499 266.937 198.357 265.826C198.463 265.689 198.573 265.553 198.685 265.423C200.201 263.617 202.089 262.412 204.036 261.164C206.216 260.867 208.39 260.207 210.524 259.723C215.793 258.523 221.062 257.324 226.335 256.128C227.368 255.891 226.929 254.304 225.895 254.538C221.893 255.443 217.891 256.349 213.889 257.254L208.032 258.581C206.862 258.844 205.4 259.374 204.023 259.565C203.345 259.659 202.687 259.671 202.093 259.532C200.173 259.078 200.076 256.682 200.904 255.258C201.832 253.66 203.584 252.66 205.139 251.754C207.835 250.182 210.703 249.053 213.504 247.75C214.001 247.641 214.499 247.532 214.996 247.423C217.888 246.787 221.193 246.475 223.915 245.31C224.731 244.964 224.285 243.68 223.479 243.698C221.366 243.744 219.155 244.495 217.091 244.94C214.856 245.424 212.619 245.906 210.384 246.387C210.16 246.436 208.832 246.86 208.632 246.766C208.505 246.705 208.459 246.264 208.417 245.973C208.28 245.016 208.18 244.01 208.329 243.05C208.656 240.897 210.454 239.885 212.273 239.058C216.324 237.22 220.765 236.069 225.186 235.609C226.204 235.503 227.223 235.436 228.248 235.403C229.451 235.366 230.443 235.154 231.052 236.338C232.01 238.204 232.538 240.603 232.853 242.732ZM227.228 310.375C226.345 307.326 226.585 304.07 225.981 300.96C225.669 299.356 225.243 297.764 224.778 296.197C224.402 294.932 223.776 293.586 223.705 292.265C223.701 292.177 223.805 292.126 223.877 292.167C225.122 292.879 226.078 294.419 226.788 295.628C227.638 297.074 228.287 298.588 228.811 300.181C229.855 303.352 230.711 307.179 229.366 310.375C228.965 311.327 227.558 311.517 227.228 310.375ZM192.784 333.458C191.469 332.542 190.511 331.26 189.395 330.129C188.298 329.016 190.013 327.303 191.11 328.416C192.062 329.38 192.888 330.586 194.008 331.366C194.547 331.741 194.797 332.42 194.444 333.024C194.131 333.557 193.322 333.833 192.784 333.458ZM185.45 298.221C187.851 297.184 190.212 296.055 192.725 295.308C194.226 294.861 194.862 297.2 193.369 297.644C191.055 298.332 188.885 299.358 186.674 300.313C185.255 300.926 184.021 298.838 185.45 298.221ZM160.095 297.495C159.508 296.048 161.855 295.425 162.434 296.851C163.1 298.494 163.863 300.094 164.529 301.736C165.116 303.183 162.769 303.807 162.191 302.38C161.524 300.738 160.761 299.138 160.095 297.495ZM135.069 326.394C134.678 326.915 134.026 327.198 133.41 326.829C132.894 326.52 132.579 325.699 132.975 325.172C134.131 323.633 135.302 322.112 136.657 320.74C137.755 319.627 139.469 321.342 138.372 322.453C137.162 323.678 136.102 325.02 135.069 326.394ZM131.491 164.243C132.604 165.003 133.579 165.926 134.53 166.875C135.636 167.979 133.921 169.692 132.815 168.588C132.014 167.788 131.205 166.976 130.266 166.335C129.724 165.965 129.481 165.277 129.831 164.678C130.146 164.141 130.95 163.874 131.491 164.243ZM167.9 203.233C167.27 204.492 166.704 205.726 166.668 207.157C166.63 208.716 164.204 208.717 164.243 207.157C164.289 205.285 164.98 203.661 165.805 202.01C166.503 200.613 168.595 201.842 167.9 203.233ZM181.258 171.919C182.562 171.051 183.775 173.151 182.483 174.011C181.435 174.709 180.387 175.407 179.339 176.105C178.036 176.973 176.823 174.873 178.115 174.012C179.163 173.315 180.211 172.617 181.258 171.919ZM123.316 226.669C123.094 228.209 120.757 227.55 120.977 226.025C121.318 223.668 121.735 221.342 122.375 219.047C122.794 217.544 125.133 218.187 124.713 219.691C124.073 221.987 123.657 224.312 123.316 226.669ZM114.813 254.423C113.252 254.39 113.251 251.967 114.813 252C116.225 252.03 117.614 252.402 118.977 252.742C120.493 253.12 119.847 255.456 118.332 255.078C117.18 254.79 116.007 254.449 114.813 254.423ZM111.673 310.332C111.137 310.593 110.587 310.828 110.045 311.076C108.959 311.571 107.874 312.068 106.789 312.565C104.529 313.602 102.271 314.641 100.014 315.685C95.4968 317.774 90.9446 319.789 86.4163 321.855C81.7986 323.962 77.193 326.098 72.5932 328.244C70.426 329.254 68.2425 330.228 66.0633 331.212C64.2 332.054 61.8967 333.525 59.8512 333.663C59.746 333.67 59.7108 333.537 59.7708 333.469C60.5436 332.591 61.7764 332.081 62.792 331.51C63.8295 330.927 64.8864 330.378 65.9384 329.822C68.1316 328.661 70.3275 327.51 72.5419 326.39C76.9714 324.15 81.4093 321.927 85.8481 319.707C90.3752 317.443 94.8965 315.163 99.4633 312.979C101.613 311.95 103.766 310.925 105.919 309.903C107.086 309.349 108.253 308.797 109.42 308.245C109.924 308.007 110.423 307.749 110.939 307.536C111.624 307.253 112.144 307.311 112.851 307.136C114.003 306.852 114.502 308.316 113.617 308.953C112.889 309.478 112.506 309.927 111.673 310.332ZM95.4816 335.177C95.2327 334.572 95.7539 333.838 96.3287 333.686C97.0172 333.505 97.5693 333.923 97.8206 334.532C98.4855 336.148 99.4326 337.631 100.652 338.883C101.741 340.002 100.027 341.715 98.9366 340.596C97.4089 339.027 96.3114 337.192 95.4816 335.177ZM83.5694 296.285C82.4637 295.181 84.1791 293.468 85.2845 294.572L88.4279 297.712C89.5336 298.817 87.8179 300.53 86.7128 299.426L83.5694 296.285ZM51.3203 291.166C49.0604 291.828 46.4246 292.437 44.8839 294.363C44.8087 294.457 44.6822 294.336 44.7274 294.242C46.6999 290.157 52.3566 288.724 56.2731 287.293C59.0432 286.281 61.8855 285.441 64.7517 284.691C64.4652 281.425 65.2553 277.924 65.53 274.674C65.8232 271.204 66.0618 267.724 66.1843 264.243C66.3095 260.692 66.3398 257.117 66.2228 253.565C66.1064 250.026 65.6464 246.53 65.4451 243.003C65.4257 242.662 65.9011 242.646 66.0036 242.928C67.1939 246.201 67.7023 249.827 68.0897 253.278C68.4887 256.833 68.6212 260.378 68.5703 263.954C68.5175 267.631 68.3035 271.299 68.0097 274.964C67.8705 276.701 67.709 278.436 67.5565 280.172C67.44 281.496 67.3861 282.811 67.1156 284.093C68.8444 283.67 70.577 283.269 72.3042 282.879C77.8118 281.637 83.3424 280.485 88.8269 279.143C91.5191 278.484 94.1728 277.695 96.8529 276.994C99.3766 276.334 102.04 275.534 104.631 275.239C105.556 275.134 105.674 276.397 105.061 276.826C102.956 278.303 100.159 279.332 97.7264 280.159C95.2852 280.988 92.7476 281.585 90.2454 282.2C85.0274 283.482 79.76 284.53 74.5005 285.622C69.2482 286.712 63.9859 287.795 58.7928 289.14C56.2919 289.789 53.7994 290.439 51.3203 291.166ZM38.9364 226.346C37.586 227.138 36.367 225.043 37.7125 224.254C39.473 223.222 41.3494 222.446 43.2409 221.689C44.6926 221.109 45.3171 223.453 43.8858 224.026C42.1859 224.706 40.5184 225.419 38.9364 226.346ZM34.0467 316.362C32.6927 317.146 31.4728 315.052 32.8228 314.27C34.7189 313.172 36.7954 312.44 38.7603 311.479C40.1582 310.795 41.3861 312.886 39.9842 313.571C38.0196 314.532 35.9428 315.264 34.0467 316.362ZM31.8475 265.265C33.1566 266.507 34.9038 267.092 36.5513 267.745C37.9878 268.313 37.3578 270.655 35.9064 270.081C33.8539 269.268 31.7632 268.525 30.1324 266.978C28.9979 265.901 30.716 264.191 31.8475 265.265ZM46.3306 195.871C47.7698 196.435 47.1395 198.777 45.6858 198.207C44.0735 197.576 42.4084 197.095 40.7961 196.463C39.3572 195.899 39.9872 193.557 41.441 194.126C43.0533 194.758 44.7183 195.239 46.3306 195.871ZM71.8804 168.308C73.4096 168.05 74.0608 170.385 72.5252 170.644C70.6201 170.966 68.744 171.342 66.9371 172.04C65.4779 172.604 64.8518 170.26 66.2922 169.704C68.0994 169.005 69.9755 168.629 71.8804 168.308ZM80.3224 235.417C78.9202 234.729 80.1505 232.64 81.5463 233.326C83.0173 234.048 84.5414 234.606 86.1465 234.948C87.6748 235.273 87.0239 237.608 85.5016 237.284C83.6953 236.9 81.9765 236.23 80.3224 235.417ZM88.2957 197.615C89.8055 197.202 90.444 199.54 88.9405 199.952C86.2953 200.676 83.5719 201.052 80.9072 201.696C79.3886 202.064 78.7462 199.727 80.2623 199.36C82.927 198.716 85.6508 198.34 88.2957 197.615ZM122.12 185.753C123.655 186.037 123.001 188.371 121.476 188.089C119.851 187.789 118.205 187.784 116.559 187.783C114.996 187.783 114.998 185.36 116.559 185.361C118.43 185.361 120.276 185.412 122.12 185.753ZM232.435 198.411C228.472 198.032 224.503 197.73 220.529 197.502C220.344 197.493 220.162 197.481 219.977 197.472C219.956 197.43 219.929 197.39 219.901 197.348C218.604 195.446 217.649 193.544 216.821 191.393C216.03 189.346 215.263 187.235 214.044 185.388C212.654 183.283 210.777 181.636 208.72 180.208C207.473 181.047 206.315 182.028 205.256 183.068C204.141 184.162 202.425 182.449 203.54 181.355C204.482 180.43 205.487 179.576 206.549 178.805C205.322 178.061 204.071 177.361 202.85 176.665C198.275 174.058 193.591 171.646 188.81 169.442C186.588 168.415 184.338 167.503 182.074 166.58C180.855 166.083 179.651 165.444 178.432 164.869C178.52 164.008 178.263 163.045 177.602 162.479C177.114 162.064 176.735 161.909 176.153 161.616C176.022 161.57 175.943 161.543 175.907 161.528C175.934 161.534 176.013 161.558 176.143 161.6C176.453 161.743 176.477 161.7 176.216 161.476C176.201 160.986 175.234 159.95 175.013 159.444C174.243 157.709 174.003 155.873 172.866 154.292C171.299 152.115 168.667 151.291 166.214 152.03C165.96 149.41 165.893 146.676 164.905 144.337C164.877 144.274 164.789 144.246 164.75 144.316C163.719 146.07 163.631 148.023 163.552 150.046C163.477 151.945 163.549 153.886 163.798 155.773C163.64 155.894 163.48 156.01 163.313 156.122C162.531 156.636 161.688 157.033 160.803 157.327C159.117 157.884 157.349 158.127 155.582 158.211C151.019 158.429 146.317 157.969 141.83 157.188C137.291 156.397 130.333 155.21 126.295 152.942C123.63 151.446 121.171 149.619 118.679 147.85C119.582 144.943 119.813 141.817 118.903 139.361C118.794 139.067 118.333 139.013 118.245 139.361C117.675 141.705 117.509 144.062 116.751 146.378C116.739 146.412 116.727 146.448 116.714 146.481C116.478 146.321 116.241 146.163 116.005 146.006C115.459 145.646 114.716 145.915 114.389 146.43C109.153 154.671 100.861 155.143 92.1539 156.616C82.6247 158.227 73.0476 159.965 63.8856 163.118C55.1237 166.135 46.7499 170.526 40.1164 177.086C38.6147 178.571 37.2104 180.154 35.8849 181.806C37.1674 181.968 38.4392 182.219 39.6947 182.613C41.1811 183.079 40.5423 185.418 39.0498 184.949C37.4363 184.443 35.8049 184.192 34.1568 184.068C29.6494 190.227 26.135 197.212 23.0959 204.086C17.2667 217.267 13.4724 231.305 11.7264 245.596C12.6851 245.022 13.661 244.475 14.6612 243.967C16.051 243.261 17.2767 245.352 15.8854 246.059C14.3404 246.844 12.8397 247.709 11.3857 248.647C10.7505 254.903 10.5043 261.199 10.6535 267.485C11.0082 282.471 13.0334 297.896 17.6145 312.194C19.861 319.211 22.8382 326.172 27.2737 332.102C29.2808 334.788 31.5607 337.211 34.2468 339.231C35.5475 340.212 36.9239 341.088 38.3761 341.826C40.2467 342.783 42.6843 343.098 44.2972 344.452C44.8278 344.898 45.2371 345.485 45.5463 346.148C45.3674 347.408 45.3462 348.671 45.6918 349.931C45.801 350.325 46.0981 350.646 46.4649 350.8C46.471 350.909 46.471 351.015 46.471 351.118C46.471 351.167 46.5438 351.179 46.5529 351.131C46.568 351.036 46.5832 350.943 46.5983 350.846C46.7166 350.885 46.8409 350.903 46.9682 350.903C51.5735 350.921 56.1845 350.809 60.7959 350.652C60.4393 349.561 60.0531 348.479 59.6823 347.388C59.1787 345.906 61.522 345.276 62.021 346.744C62.4549 348.02 62.9084 349.284 63.312 350.565C68.2529 350.381 73.1922 350.161 78.1228 349.998C88.6098 349.649 99.0937 349.534 109.583 349.313C125.873 348.968 142.282 348.262 158.597 348.953C159.162 347.757 159.793 346.588 160.392 345.408C161.098 344.015 163.19 345.243 162.486 346.631C162.07 347.451 161.639 348.26 161.229 349.079C164.534 349.25 167.835 349.477 171.129 349.786C176.75 350.313 182.316 351.248 187.931 351.83C193.64 352.424 199.224 352.318 204.888 351.376C205.907 351.206 206.507 350.591 206.755 349.828C206.764 349.825 206.771 349.819 206.776 349.81C207.067 349.471 207.341 349.189 207.622 348.944C207.959 348.726 208.323 348.541 208.75 348.377C209.548 348.074 210.378 347.89 211.221 347.765C212.149 347.626 213.089 347.614 214.017 347.499C214.798 347.399 215.563 347.251 216.326 347.069C217.7 346.742 219.004 346.315 220.301 345.748C221.432 345.255 222.454 344.546 223.418 343.774C225.413 342.317 227.141 340.458 228.651 338.525C229.53 337.395 230.358 336.223 231.11 335.003C232.419 332.889 233.535 330.693 234.663 328.479C235.072 327.823 235.446 327.151 235.787 326.465C233.583 325.817 231.358 325.288 229.021 325.25C227.459 325.225 227.459 322.802 229.021 322.827C231.701 322.87 234.236 323.495 236.754 324.24C236.877 323.915 236.995 323.587 237.104 323.255C237.404 322.561 237.652 321.849 237.858 321.129C237.979 320.801 238.101 320.474 238.222 320.147C238.495 319.015 238.768 317.879 239.044 316.743C239.593 314.926 240.026 313.081 240.345 311.213C240.611 309.983 240.817 308.744 240.957 307.491C241.381 304.453 241.727 301.421 241.751 298.35C241.715 296.457 241.594 294.567 241.387 292.686C241.3 291.408 241.151 290.136 240.951 288.873C240.69 286.996 240.432 285.136 239.999 283.283C239.675 282.029 239.35 280.775 239.026 279.521C238.216 276.907 237.261 274.345 236.16 271.84C236.1 271.683 235.794 271.338 235.609 271.334C235.469 271.331 235.275 271.459 235.339 271.629C235.345 271.643 235.351 271.662 235.357 271.677C235.294 271.534 235.233 271.389 235.169 271.247C235.115 271.113 234.902 270.847 234.739 270.85C234.73 270.85 234.72 270.85 234.708 270.853C234.751 270.823 234.79 270.783 234.83 270.738C235.918 269.451 236.625 267.758 237.404 266.268C238.049 265.038 238.659 263.742 238.835 262.352C238.989 261.131 238.78 259.929 238.013 258.941C237.14 257.818 235.497 257.291 236.409 255.667C237.446 253.82 238.971 252.218 237.452 250.119C236.679 249.05 235.454 248.462 234.545 247.532C233.499 246.457 233.001 245.019 233.029 243.55C233.093 243.586 233.177 243.568 233.208 243.477C234.087 240.824 233.45 237.911 232.55 235.327C232.059 233.925 231.018 233.54 229.809 233.471C235.048 223.249 239.95 212.863 244.319 202.239C244.465 201.891 244.607 201.543 244.749 201.194C244.962 200.673 244.513 199.98 243.995 199.864C240.217 199.038 236.282 198.774 232.435 198.411Z" fill="black"/>
<path d="M212.45 235.421C211.868 236.542 211.073 237.274 210.065 237.616C209.058 237.958 207.985 237.941 206.846 237.566L205.507 240.143L205.081 239.921L206.398 237.387C206.263 237.335 206.074 237.246 205.833 237.121C205.606 237.002 205.343 236.848 205.046 236.657L203.718 239.213L203.292 238.992L204.653 236.372C204.349 236.124 204.095 235.884 203.891 235.652C203.695 235.405 203.506 235.127 203.325 234.816C203.116 234.455 202.926 234.23 202.756 234.142C202.628 234.076 202.488 234.102 202.336 234.221C202.191 234.326 202.013 234.531 201.8 234.835L201.311 234.581C201.773 233.83 202.687 232.141 204.052 229.514L204.542 229.769C204 231.02 203.731 232.178 203.736 233.245C203.741 234.311 204.128 235.197 204.897 235.904L208.482 229.004C207.764 227.783 207.298 226.702 207.084 225.762C206.87 224.821 207.021 223.853 207.537 222.86C208.083 221.809 208.82 221.137 209.748 220.844C210.683 220.537 211.663 220.559 212.688 220.911L214.049 218.292L214.475 218.513L213.136 221.09L213.456 221.256C213.754 221.411 214.087 221.62 214.455 221.884L215.838 219.222L216.264 219.443L214.825 222.211C215.1 222.516 215.373 222.911 215.644 223.394C215.853 223.755 216.043 223.98 216.213 224.069C216.341 224.135 216.477 224.116 216.622 224.011C216.774 223.891 216.956 223.68 217.169 223.375L217.659 223.63C217.16 224.416 216.372 225.846 215.294 227.919L214.805 227.664C215.198 226.733 215.391 225.824 215.384 224.936C215.391 224.056 215.127 223.297 214.593 222.659L211.306 228.984C211.85 229.915 212.256 230.712 212.524 231.375C212.807 232.045 212.954 232.716 212.965 233.389C212.984 234.048 212.812 234.725 212.45 235.421ZM213.437 221.76C213.323 221.701 213.146 221.627 212.904 221.537L210.093 226.946C210.211 227.17 210.41 227.499 210.689 227.933L211.024 228.485L214.233 222.31C213.986 222.091 213.721 221.908 213.437 221.76ZM209.555 222.88C209.253 223.463 209.133 224.04 209.195 224.614C209.265 225.173 209.474 225.778 209.822 226.427L212.422 221.422C211.83 221.313 211.278 221.387 210.766 221.643C210.254 221.9 209.85 222.313 209.555 222.88ZM205.905 236.617C206.147 236.743 206.392 236.843 206.641 236.918L209.685 231.062C209.56 230.817 209.281 230.329 208.849 229.6L208.776 229.481L205.267 236.231C205.536 236.407 205.749 236.536 205.905 236.617ZM207.133 237.012C207.734 237.072 208.297 236.959 208.824 236.674C209.351 236.388 209.791 235.905 210.146 235.224C210.433 234.67 210.55 234.099 210.494 233.512C210.461 232.917 210.281 232.274 209.956 231.582L207.133 237.012Z" fill="black"/>
<path fill-rule="evenodd" clip-rule="evenodd" d="M176.982 81.9109C176.867 75.4313 176.74 68.8222 175.777 62.4056C174.836 56.1326 172.248 50.4623 167.799 45.907C158.35 36.231 144.652 33.8676 131.903 31.7018L110.104 27.9986C103.454 26.8691 96.3594 25.0637 89.6403 26.6655C86.3295 27.4548 83.5178 29.2886 80.9481 31.4582C78.4711 33.5494 75.808 35.7951 74.1296 38.6086C72.4483 41.4261 71.8699 44.7197 71.3234 47.9062C70.7069 51.4989 70.228 55.1196 69.8878 58.749C69.206 66.0206 69.1129 73.3468 69.6074 80.6333C69.847 84.1676 70.2283 87.6917 70.715 91.2002C70.9563 92.94 71.2292 94.6755 71.5373 96.4048C71.628 96.9148 71.6971 97.4794 71.7902 98.0497C71.1026 100.007 70.7118 102.033 70.7433 104.052C70.8361 109.996 75.8499 113.738 80.9044 115.748C83.8352 116.913 86.8992 117.705 89.7788 119.006C92.8081 120.375 94.87 122.595 96.9412 125.126C100.891 129.955 105.349 134.295 110.439 137.915C121.231 145.592 134.9 149.223 147.994 146.467C151.136 145.806 154.305 144.779 157.129 143.232C160.111 141.599 162.353 139.232 164.236 136.433C167.731 131.238 170.239 125.388 172.135 119.435C174.07 113.363 175.443 107.28 176.192 100.948C176.938 94.6367 177.095 88.2612 176.982 81.9109V81.9109Z" fill="#D08B5B"/>
<path fill-rule="evenodd" clip-rule="evenodd" d="M107.422 5.42725C116.442 4.18553 128.893 8.22132 133.385 16.3588C154.833 11.2989 181.884 11.1331 199.561 27.9777C218.007 47.9591 194.838 74.3046 179.475 80.2445C180.594 85.6843 178.85 120.534 166.51 136.078C156.716 149.249 133.91 155.328 123.357 139.596L123.274 139.466C122.144 137.649 123.117 137.708 124.278 139.059C134.612 148.154 148.663 148.309 159.49 138.711C179.782 121.169 177.69 78.1556 168.034 53.2719C140.539 50.2499 111.1 58.5896 92.109 79.3019L93.3932 87.0385C93.612 88.3566 93.8606 89.6735 94.0502 90.9962C94.1715 91.8437 94.1851 92.6865 93.5984 93.3726C91.661 95.6374 88.3959 92.2342 85.7093 90.8805C84.9162 90.7689 84.1217 90.7258 83.3425 90.7807C70.435 92.4444 72.9782 117.501 87.1643 113.109C88.3563 112.366 89.3803 112.593 89.8428 113.671C93.2241 116.771 95.4537 122.299 101.072 127.623C103.054 129.62 104.858 131.291 107.087 132.893C108.397 134.219 112.348 135.57 111.096 137.838C108.727 142.999 94.7577 126.788 92.2879 122.305C84.5498 125.363 75.9742 124.324 67.9551 123.577C25.6499 121.376 31.2975 76.7487 65.9741 48.5734C72.5016 43.7645 79.7033 39.8415 87.1895 36.8227C88.2115 36.4105 87.7649 34.7312 86.7285 35.1491C81.7751 37.1469 76.9463 39.5248 72.3432 42.2769L72.3362 40.6315C72.3295 37.8602 72.3729 34.9751 72.8539 32.443C73.0944 30.6885 73.4987 28.8145 74.1213 27.4047C74.891 23.0826 86.9478 8.24677 107.422 5.42725ZM82.7779 96.5333C83.4311 95.9123 84.6505 96.6528 85.232 96.6343C86.7191 96.8379 88.1319 97.4664 89.2336 98.2422C89.9611 98.65 90.471 99.033 90.897 99.3853L90.9086 99.3821C90.9054 99.3821 90.9013 99.3853 90.8979 99.3861L90.938 99.4132C91.5583 99.8543 93.8292 102.339 92.3945 101.671C92.2875 101.531 92.178 101.398 92.0676 101.267C92.0557 101.285 92.0393 101.302 92.0196 101.319L92.1002 101.439C93.3196 103.275 91.2143 101.341 90.8904 100.827C90.875 100.84 90.8577 100.848 90.8407 100.857L91.2625 101.371C91.3214 101.444 91.3678 101.502 91.4063 101.551L91.4952 101.637C92.9051 103.024 92.9492 104.272 91.3112 102.222C91.3756 102.318 91.4274 102.421 91.4346 102.511L91.5317 102.635C92.8178 104.294 91.7717 103.705 91.1326 102.996L91.0791 102.935L91.0901 102.952C91.6846 103.869 90.505 103.225 90.2965 102.735L90.2877 102.713C90.0606 102.528 89.9208 102.319 89.8729 102.267L89.864 102.258C88.7582 101.124 87.1552 100.165 85.7936 99.7289C85.5962 99.6913 85.3965 99.6612 85.1947 99.6398C84.3759 99.457 83.5481 99.3317 82.7117 99.2641C82.6094 99.2519 82.5056 99.1767 82.4282 99.0795C81.1633 99.0368 81.5538 98.518 82.0785 98.4217L82.0877 98.4201L81.9836 98.4113C81.1719 98.332 80.6175 98.0406 81.4383 97.8617L81.5423 97.841C81.5296 97.821 81.5183 97.8011 81.5073 97.7811C80.8044 97.7039 81.2631 97.0201 81.6533 97.1856C81.4891 96.6484 82.2394 96.9166 82.3331 96.8367C82.4045 96.7575 82.4932 96.6875 82.5443 96.6837C82.7704 96.5241 82.6608 96.5385 82.7779 96.5333ZM87.0788 87.8371L86.914 87.9334C86.7808 88.0112 86.6438 88.063 86.5062 88.0934C86.7004 88.1761 86.8923 88.2655 87.0822 88.3609C87.0791 88.2443 87.077 88.1277 87.077 88.0114L87.0788 87.8371Z" fill="black"/>
<path fill-rule="evenodd" clip-rule="evenodd" d="M151.914 123.593C153.817 123.146 155.311 124.772 154.937 126.644C154.541 128.626 152.429 129.305 150.659 129.242C148.651 129.172 146.645 128.754 144.627 128.67C142.555 128.584 140.474 128.568 138.4 128.624C136.482 128.677 134.513 129.018 132.61 128.711C131.869 128.592 131.939 127.605 132.422 127.254C133.853 126.212 135.709 125.788 137.397 125.35C139.117 124.904 140.876 124.563 142.641 124.355C144.43 124.144 146.234 124.038 148.035 124.018C148.854 124.008 149.859 124.192 150.659 124.043C151.066 123.967 151.481 123.696 151.914 123.593ZM146.422 97.8522C148.695 99.2464 152.159 102.498 149.713 105.954C146.834 109.002 142.69 105.507 140.648 103.927C138.754 102.702 136.626 105.852 138.383 107.282C153.141 118.307 159.13 98.2167 147.571 96.2129C146.299 95.992 145.826 97.4208 146.422 97.8522ZM129.938 87.4408C132.979 86.9304 133.511 91.3045 130.497 91.6101C129.865 91.6742 129.236 91.7301 128.608 91.7857C128.669 91.9837 128.71 92.1875 128.732 92.3971C128.761 92.5751 128.782 92.7641 128.801 92.98C128.897 94.0562 128.14 95.1753 127.257 95.6971C126.339 96.2393 125.021 96.3116 124.109 95.6971C123.639 95.38 123.169 95.0225 122.91 94.4982C122.562 93.9596 122.373 93.3363 122.353 92.6966C120.967 93.0599 119.555 93.5511 118.155 93.8114C118.207 93.8624 118.257 93.9168 118.306 93.9766C118.344 94.0225 118.293 94.1085 118.238 94.0662L117.536 93.9092V93.9092C117.32 93.9378 117.103 93.9611 116.888 93.9748L116.893 93.9557V93.9557C116.533 93.9493 116.238 93.5195 116.56 93.1756C117.797 91.8564 119.727 90.9796 121.487 90.2465L123.183 89.5451C125.351 88.656 127.639 87.8266 129.938 87.4408ZM154.401 88.7939C156.392 88.5646 158.364 88.6557 160.359 88.7784C163.717 88.9847 162.309 93.9249 159.614 92.7844C159.641 92.9651 159.649 93.1461 159.628 93.3147C159.523 94.1831 159.242 94.917 158.452 95.3836C157.718 95.8167 156.789 95.8155 156.055 95.3836C155.269 94.9213 154.915 94.2697 154.714 93.4231C154.559 92.7667 154.621 92.2175 154.711 91.5675C154.741 91.3522 154.834 91.1514 154.963 90.9709C154.775 90.9236 154.587 90.8777 154.398 90.8349C152.723 90.4503 151.07 90.5275 149.399 90.2838C149.221 90.2577 149.192 89.9673 149.348 89.8935C150.85 89.1818 152.758 88.9829 154.401 88.7939ZM129.631 73.5361C130.781 73.0935 132.224 73.8295 132.811 74.8419C133.477 75.9907 133.193 77.3169 132.371 78.285C131.11 79.77 128.709 80.6848 126.94 81.5322L126.798 81.6007C124.981 82.4853 123.114 83.2975 121.222 84.0053C119.361 84.7018 117.425 85.2473 115.496 85.7157C114.479 85.9626 113.44 86.1668 112.401 86.2956C111.58 86.397 110.947 86.1698 110.162 86.1698C110.048 86.1701 110.012 86.0167 110.105 85.9578C110.839 85.4924 111.384 84.8798 112.184 84.4487C113.017 84.0001 113.853 83.559 114.693 83.1222C116.389 82.2395 118.024 81.2572 119.661 80.2685C121.386 79.2263 123.073 78.1288 124.713 76.9539C126.317 75.8042 127.796 74.2423 129.631 73.5361ZM150.113 72.5908C151.548 72.3098 152.97 72.9951 153.395 74.4711C153.802 75.885 153.376 76.1882 154.462 77.2C155.328 78.0063 156.262 78.7261 157.205 79.4348L158.592 80.4752C161.104 82.3516 163.637 84.1258 166.526 85.3919C166.77 85.4989 166.629 85.8649 166.397 85.8697C161.805 85.959 157.402 85.3318 153.257 83.2575C151.32 82.2885 149.375 81.0628 148.253 79.1285C146.954 76.8886 146.991 73.2014 150.113 72.5908Z" fill="black"/>
</svg>
