<svg id="Layer_1" data-name="Layer 1" xmlns="http://www.w3.org/2000/svg" viewBox="0 0 616.89 283.46">
  <defs>
    <style>
      .cls-1, .cls-2, .cls-3 {
        fill: none;
        stroke-miterlimit: 10;
        stroke-width: 8px;
      }

      .cls-1 {
        stroke: #231f20;
      }

      .cls-2 {
        stroke: #ed1c24;
      }

      .cls-3 {
        stroke: #00a14b;
      }

      .cls-4 {
        fill: #231f20;
      }
    </style>
  </defs>
  <title>ir_black</title>
  <g>
    <line class="cls-1" x1="141.73" y1="283.46" x2="141.73"/>
    <g>
      <line class="cls-1" y1="141.73" x2="113.39" y2="141.73"/>
      <line class="cls-1" x1="170.08" y1="141.73" x2="283.46" y2="141.73"/>
    </g>
    <g>
      <line class="cls-2" x1="41.51" y1="241.95" x2="121.69" y2="161.78"/>
      <line class="cls-3" x1="161.78" y1="121.69" x2="241.95" y2="41.51"/>
    </g>
  </g>
  <g>
    <g>
      <path class="cls-4" d="M324.52,143.35h-6.58V43.25h6.58Z" transform="translate(-6.5 -10.78)"/>
      <path class="cls-4" d="M336,143.35V43.25h8.58l30,84.51V43.25h6v100.1h-7.3L342,54.12v89.23Z" transform="translate(-6.5 -10.78)"/>
      <path class="cls-4" d="M424.33,98H398.45v45.33h-6.58V43.25h38v6H398.45V92h25.88Z" transform="translate(-6.5 -10.78)"/>
      <path class="cls-4" d="M446.5,143.35h-6.58V43.25h6.58Z" transform="translate(-6.5 -10.78)"/>
      <path class="cls-4" d="M457.94,143.35V43.25h8.58l30,84.51V43.25h6v100.1h-7.29L463.94,54.12v89.23Z" transform="translate(-6.5 -10.78)"/>
      <path class="cls-4" d="M520.43,143.35h-6.58V43.25h6.58Z" transform="translate(-6.5 -10.78)"/>
      <path class="cls-4" d="M548.74,49.25H528.43v-6h47.34v6H555.32v94.1h-6.58Z" transform="translate(-6.5 -10.78)"/>
      <path class="cls-4" d="M617.81,95.59H590.5v41.75h32.89v6H583.92V43.25h39.47v6H590.5V89.58h27.31Z" transform="translate(-6.5 -10.78)"/>
    </g>
    <g>
      <path class="cls-4" d="M352.54,196.7V204q0,7.44-2.94,11.7t-9.18,5.7q12.12,2.64,12.12,17.16v13.08q0,7,2,10.08h-5.76a11.49,11.49,0,0,1-1.44-4.14,40.27,40.27,0,0,1-.36-5.94v-13.2c0-5.28-1.31-9-4-11.1s-6.56-3.18-11.76-3.18h-8.76v37.56H317v-84h17.52Q352.54,177.74,352.54,196.7Zm-9.36,19.44q3.84-3,3.84-11v-7.92q0-7.08-3-10.74t-9.6-3.66H322.54v36.36h8.88C336.71,219.14,340.62,218.14,343.18,216.14Z" transform="translate(-6.5 -10.78)"/>
      <path class="cls-4" d="M391.78,221.66H368.86v35h27.6v5H363.34v-84h33.12v5h-27.6v33.84h22.92Z" transform="translate(-6.5 -10.78)"/>
      <path class="cls-4" d="M436.48,182.72q4.38,5.7,4.38,15.3v1.8h-5.28v-2.16q0-7.2-3-11.4t-9.48-4.2q-6.48,0-9.48,4.2t-3,11.28a16.72,16.72,0,0,0,1.92,8.1,23.22,23.22,0,0,0,4.74,6.12,94.38,94.38,0,0,0,7.74,6.18q5.16,3.72,8.4,6.6a24.09,24.09,0,0,1,5.4,7.08,21.24,21.24,0,0,1,2.16,9.84q0,9.6-4.44,15.3t-13.68,5.7q-9.24,0-13.68-5.7t-4.44-15.3v-4.32H410v4.68q0,7.2,3.06,11.34t9.66,4.14q6.6,0,9.66-4.14t3.06-11.34a16.37,16.37,0,0,0-1.92-8,23.58,23.58,0,0,0-4.74-6.06,88.77,88.77,0,0,0-7.62-6.06,98,98,0,0,1-8.4-6.66,25.54,25.54,0,0,1-5.46-7.2,21.13,21.13,0,0,1-2.22-9.9q0-9.72,4.44-15.24T423,177Q432.1,177,436.48,182.72Z" transform="translate(-6.5 -10.78)"/>
      <path class="cls-4" d="M478.3,221.66H455.38v35H483v5H449.86v-84H483v5h-27.6v33.84H478.3Z" transform="translate(-6.5 -10.78)"/>
      <path class="cls-4" d="M527.5,196.7V204q0,7.44-2.94,11.7t-9.18,5.7q12.12,2.64,12.12,17.16v13.08q0,7,2,10.08h-5.76a11.3,11.3,0,0,1-1.44-4.14,40.27,40.27,0,0,1-.36-5.94v-13.2q0-7.92-4-11.1t-11.76-3.18H497.5v37.56H492v-84H509.5Q527.5,177.74,527.5,196.7Zm-9.36,19.44q3.84-3,3.84-11v-7.92q0-7.08-3-10.74t-9.6-3.66H497.5v36.36h8.88Q514.3,219.14,518.14,216.14Z" transform="translate(-6.5 -10.78)"/>
      <path class="cls-4" d="M559.54,255.38l17-77.64h5.16l-18.24,84h-8.16l-18.48-84h5.64Z" transform="translate(-6.5 -10.78)"/>
      <path class="cls-4" d="M618.58,221.66H595.66v35h27.6v5H590.14v-84h33.12v5h-27.6v33.84h22.92Z" transform="translate(-6.5 -10.78)"/>
    </g>
  </g>
</svg>
